# xmcd
#
# Track frame offsets:
#	150
#	27138
#	42335
#	73600
#	94418
#	113525
#	134615
#	172735
#	195103
#	222415
#
# Disc length: 3203 seconds
# Revision: 3
# Processed by: cddbd v1.5.2PL0 Copyright (c) Steve Scherf et al.
# Submitted via: dBpowerAMP V12.0
#
DISCID=830c810a
DTITLE=Jesse "Wild Bill" Austin - Baby's Back
DYEAR=1995
DGENRE=Blues
TTITLE0=Fat Back of Georgia
TTITLE1=Big Mama's Calling
TTITLE2=I'll Cry Tomorrow
TTITLE3=Salt Pork West Virginia
TTITLE4=Baby's Home to Stay
TTITLE5=Giving Mama And Papa The Blues
TTITLE6=It Rained in Georgia
TTITLE7=Juice Head Baby
TTITLE8=You've Got to Hurt Before You Heal
TTITLE9=A Good Man is Hard to Find
EXTD=
EXTT0=
EXTT1=
EXTT2=
EXTT3=
EXTT4=
EXTT5=
EXTT6=
EXTT7=
EXTT8=
EXTT9=
PLAYORDER=
